<svg width="59" height="20" viewBox="0 0 59 20" fill="none" xmlns="http://www.w3.org/2000/svg">
<path d="M4.9375 19.3182C7.55114 19.3182 9.65341 18.125 9.65341 15.3125V4.09091H8.03409V5.82386H7.86364C7.49432 5.25568 6.8125 3.94886 4.68182 3.94886C1.92614 3.94886 0.0227273 6.13636 0.0227273 9.48864C0.0227273 12.8977 2.01136 14.8295 4.65341 14.8295C6.78409 14.8295 7.46591 13.5795 7.83523 12.983H7.97727V15.1989C7.97727 17.017 6.69886 17.8409 4.9375 17.8409C2.95597 17.8409 2.25994 16.7969 1.8125 16.1932L0.477273 17.1307C1.15909 18.2741 2.50142 19.3182 4.9375 19.3182ZM4.88068 13.3239C2.77841 13.3239 1.69886 11.733 1.69886 9.46023C1.69886 7.24432 2.75 5.45455 4.88068 5.45455C6.92614 5.45455 8.00568 7.10227 8.00568 9.46023C8.00568 11.875 6.89773 13.3239 4.88068 13.3239ZM12.7216 15H14.3977V4.09091H12.7216V15ZM13.5739 2.27273C14.2273 2.27273 14.767 1.76136 14.767 1.13636C14.767 0.511364 14.2273 0 13.5739 0C12.9205 0 12.3807 0.511364 12.3807 1.13636C12.3807 1.76136 12.9205 2.27273 13.5739 2.27273ZM22.212 4.09091H19.8825V1.47727H18.2063V4.09091H16.5586V5.51136H18.2063V12.3295C18.2063 14.233 19.7404 15.142 21.1609 15.142C21.7859 15.142 22.1836 15.0284 22.4109 14.9432L22.07 13.4375C21.9279 13.4659 21.7006 13.5227 21.3313 13.5227C20.5927 13.5227 19.8825 13.2955 19.8825 11.875V5.51136H22.212V4.09091ZM26.6438 8.4375C26.6438 6.53409 27.8583 5.45455 29.5131 5.45455C31.0898 5.45455 32.0415 6.44886 32.0415 8.18182V15H33.7177V8.06818C33.7177 5.26278 32.2262 3.94886 29.9961 3.94886C28.2773 3.94886 27.2972 4.66619 26.7859 5.79545H26.6438V0.454545H24.9677V15H26.6438V8.4375ZM43.6591 10.5398C43.6591 12.5852 42.0966 13.5227 40.8466 13.5227C39.4545 13.5227 38.4602 12.5 38.4602 10.9091V4.09091H36.7841V11.0227C36.7841 13.8068 38.2614 15.142 40.3068 15.142C41.9545 15.142 43.0341 14.2614 43.5455 13.1534H43.6591V15H45.3352V4.09091H43.6591V10.5398ZM48.6325 15H50.2518V13.3239H50.4506C50.82 13.9205 51.5302 15.2273 53.6325 15.2273C56.3597 15.2273 58.2631 13.0398 58.2631 9.57386C58.2631 6.13636 56.3597 3.94886 53.604 3.94886C51.4734 3.94886 50.82 5.25568 50.4506 5.82386H50.3086V0.454545H48.6325V15ZM50.2802 9.54545C50.2802 7.10227 51.3597 5.45455 53.4052 5.45455C55.5359 5.45455 56.587 7.24432 56.587 9.54545C56.587 11.875 55.5075 13.7216 53.4052 13.7216C51.3881 13.7216 50.2802 12.017 50.2802 9.54545Z" fill="white"/>
</svg>
